<svg xmlns="http://www.w3.org/2000/svg" viewBox="0 0 64 64">
  <!-- Background -->
  <circle cx="32" cy="32" r="30" fill="#6B3F00"/>

  <!-- Steam -->
  <path d="M25 20C23 17 27 14 25 10" fill="none" stroke="#FFFFFF" stroke-width="2.5" stroke-linecap="round"/>
  <path d="M32 18C30 14 35 10 32 6" fill="none" stroke="#FFFFFF" stroke-width="2.8" stroke-linecap="round"/>
  <path d="M39 20C37 17 41 14 39 10" fill="none" stroke="#FFFFFF" stroke-width="2.5" stroke-linecap="round"/>

  <!-- Cup -->
  <path d="M20 28H42V38C42 44 37 48 32 48C27 48 20 44 20 38Z" fill="#FFFFFF"/>

  <!-- Handle -->
  <path d="M42 31H44C48 31 50 34 50 38C50 42 48 45 44 45H42"
        fill="none"
        stroke="#FFFFFF"
        stroke-width="3"
        stroke-linecap="round"
        stroke-linejoin="round"/>

  <!-- Saucer -->
  <ellipse cx="32" cy="50" rx="16" ry="2" fill="#FFFFFF"/>
</svg>